<?xml version="1.0" encoding="utf-8"?>
<!-- Generator: Adobe Illustrator 23.0.5, SVG Export Plug-In . SVG Version: 6.00 Build 0)  -->
<svg version="1.1" id="Camada_1" xmlns="http://www.w3.org/2000/svg" xmlns:xlink="http://www.w3.org/1999/xlink" x="0px" y="0px"
	 viewBox="0 0 1253.2 1080" style="enable-background:new 0 0 1253.2 1080;" xml:space="preserve">
<style type="text/css">
	.st0{fill:#FFFFFF;}
	.st1{fill:none;stroke:#1D1D1B;stroke-miterlimit:10;}
</style>
<path d="M1092.48,1080H160.72C71.96,1080,0,1008.04,0,919.28l0-758.56C0,71.96,71.96,0,160.72,0l931.76,0
	c88.76,0,160.72,71.96,160.72,160.72v758.56C1253.2,1008.04,1181.25,1080,1092.48,1080z"/>
<path class="st0" d="M1025.81,319.72L1025.81,319.72c25.12,0,45.48-20.36,45.48-45.48l0-91.02c0-25.12-20.36-45.48-45.48-45.48l0,0
	c-25.12,0-45.48,20.36-45.48,45.48l0,91.02C980.33,299.36,1000.69,319.72,1025.81,319.72z"/>
<path class="st0" d="M541.22,659.26H429.78c-25.12,0-45.48,20.36-45.48,45.48l0,0c0,25.12,20.36,45.48,45.48,45.48h65.48
	C490.13,807,442.42,851.51,384.3,851.51c-61.54,0-111.43-49.89-111.43-111.43V522.11c0-61.54,49.89-111.43,111.43-111.43
	c60.61,0,109.88,48.39,111.36,108.64l0,0c0,25.14,20.38,45.51,45.51,45.51c25.14,0,45.51-20.38,45.51-45.51
	c0-1.63-0.09-3.23-0.26-4.81c-4.05-107.82-93.37-194.79-202.13-194.79c-111.32,0-202.39,91.08-202.39,202.39v217.96
	c0,111.31,91.08,202.39,202.39,202.39c107.91,0,196.8-85.59,202.13-192.24h0.26v-10.14v-0.01v-35.33
	C586.7,679.62,566.33,659.26,541.22,659.26z"/>
<path class="st0" d="M907.44,251.49L907.44,251.49c12.56,21.75,40.37,29.2,62.12,16.65l78.83-45.51
	c21.75-12.56,29.2-40.37,16.65-62.12v0c-12.56-21.75-40.37-29.2-62.12-16.65l-78.83,45.51
	C902.33,201.93,894.88,229.74,907.44,251.49z"/>
<path class="st0" d="M868.9,319.72L868.9,319.72c-111.32,0-202.39,91.08-202.39,202.39v217.96c0,111.31,91.08,202.39,202.39,202.39
	h0c111.31,0,202.39-91.08,202.39-202.39V522.11C1071.29,410.79,980.21,319.72,868.9,319.72z M980.33,740.07
	c0,61.54-49.89,111.44-111.43,111.44l0,0c-61.54,0-111.44-49.89-111.44-111.44V522.11c0-61.54,49.89-111.44,111.44-111.44l0,0
	c61.54,0,111.43,49.89,111.43,111.44V740.07z"/>
<path class="st1" d="M1071.29,1061.75"/>
</svg>
