<?xml version="1.0" encoding="utf-8"?>
<!-- Generator: Adobe Illustrator 23.0.5, SVG Export Plug-In . SVG Version: 6.00 Build 0)  -->
<svg version="1.1" id="Camada_1" xmlns="http://www.w3.org/2000/svg" xmlns:xlink="http://www.w3.org/1999/xlink" x="0px" y="0px"
	 viewBox="0 0 1920 470.56" style="enable-background:new 0 0 1920 470.56;" xml:space="preserve">
<style type="text/css">
	.st0{fill:#2793FF;}
	.st1{fill:#111E6C;}
	.st2{fill:#A10091;}
</style>
<path class="st0" d="M1069.48,224.74c0-65.37-52.99-118.36-118.36-118.36c-24.44,0-47.14,7.41-66,20.1
	c-2.9-11.54-13.32-20.1-25.76-20.1c-14.69,0-26.6,11.91-26.6,26.6v91.76c0,0,0,0,0,0s0,0,0,0v219.22c0,14.69,11.91,26.6,26.6,26.6
	c14.69,0,26.6-11.91,26.6-26.6V327.34l74.91,129.74c7.34,12.72,23.61,17.08,36.33,9.73c12.72-7.34,17.08-23.61,9.73-36.33
	l-50.53-87.52C1019.31,340.2,1069.48,288.34,1069.48,224.74z M951.12,250.21c-14.97,0-27.1-12.14-27.1-27.1
	c0-14.97,12.14-27.11,27.1-27.11s27.1,12.14,27.1,27.11C978.22,238.08,966.09,250.21,951.12,250.21z"/>
<path class="st0" d="M677.21,106.39c-21.63-0.16-41.79,5.98-58.82,16.67c-4.34-10.78-15.53-18.08-28.19-16.45
	c-13.41,1.72-23.07,13.84-23.07,27.36v81.67c0,0,0,0,0,0c0,0,0,0,0,0v227.32c0,13.6,9.77,25.76,23.26,27.4
	c16.18,1.96,29.93-10.61,29.93-26.39V309.41c16.39,9.82,35.56,15.48,56.06,15.48c60.82,0,110.02-49.69,109.24-110.68
	C784.88,155.32,736.11,106.82,677.21,106.39z M682.59,249.53c-19.77,4.38-37-12.84-32.62-32.62c2.21-9.96,10.25-18,20.21-20.21
	c19.77-4.38,37,12.84,32.62,32.62C700.6,239.28,692.56,247.32,682.59,249.53z"/>
<path class="st1" d="M567.13,362.62v80.34c0,13.6,9.77,25.76,23.26,27.4c16.18,1.96,29.93-10.61,29.93-26.39V309.43
	C590.95,309.43,567.13,333.24,567.13,362.62z"/>
<path class="st1" d="M832.76,380.51v63.45c0,14.4,11.46,26.1,25.75,26.55h1.7c14.29-0.45,25.74-12.15,25.75-26.54V327.34l0,0
	C856.58,327.34,832.77,351.14,832.76,380.51z"/>
<path class="st1" d="M310.16,470.56L310.16,470.56c14.69,0,26.6-11.91,26.6-26.6V132.98c0-14.69-11.91-26.6-26.6-26.6h0
	c-14.69,0-26.6,11.91-26.6,26.6v310.99C283.56,458.65,295.47,470.56,310.16,470.56z"/>
<path class="st1" d="M493.68,470.56L493.68,470.56c14.69,0,26.6-11.91,26.6-26.6V132.98c0-14.69-11.91-26.6-26.6-26.6h0
	c-14.69,0-26.6,11.91-26.6,26.6v310.99C467.09,458.65,479,470.56,493.68,470.56z"/>
<path class="st0" d="M415.06,314.67L415.06,314.67c12.72-7.34,17.08-23.61,9.73-36.33l-91.6-158.66
	c-7.34-12.72-23.61-17.08-36.33-9.73l0,0c-12.72,7.34-17.08,23.61-9.73,36.33l91.6,158.66
	C386.08,317.66,402.34,322.02,415.06,314.67z"/>
<path class="st0" d="M388.7,314.81L388.7,314.81c12.72,7.34,28.99,2.99,36.33-9.73l91.68-158.79c7.34-12.72,2.99-28.99-9.73-36.33
	l0,0c-12.72-7.34-28.99-2.99-36.33,9.73l-91.68,158.79C371.62,291.2,375.98,307.46,388.7,314.81z"/>
<path class="st2" d="M1801.64,106.38L1801.64,106.38c-65.1,0-118.36,53.26-118.36,118.36V352.2c0,65.1,53.26,118.36,118.36,118.36h0
	c65.1,0,118.36-53.26,118.36-118.36V224.74C1920,159.64,1866.74,106.38,1801.64,106.38z M1866.81,352.2
	c0,35.99-29.18,65.17-65.17,65.17l0,0c-35.99,0-65.17-29.18-65.17-65.17V224.74c0-35.99,29.18-65.17,65.17-65.17l0,0
	c35.99,0,65.17,29.18,65.17,65.17V352.2z"/>
<path class="st0" d="M209.6,330.81c-15.04-0.1-27.26,12.06-27.26,27.08c-4.74,33.85-32.73,58.71-64.09,59.17
	c-35.88,0.53-66.97-31.02-65.1-59.17c1.92-28.95,38.15-53.14,65.1-53.14c64.09,0,0,0,64.09,0c18.15,0,54.16,0,54.16-81.76h-0.04
	c-0.88-64.55-53.44-116.61-118.2-116.61S0.93,158.45,0.05,222.99H0.02c0,3.79-0.01,35.32-0.02,39.06c-0.01,31.08-0.01,38.5,0,42.7
	c0.15,53.14,0,0,0.15,53.14c0.11,40.03,47.01,112.45,118.09,112.31c54.93-0.1,105.93-43.53,116.98-104.13
	c0.8-2.53,1.25-5.23,1.26-8.02C236.58,343.39,224.26,330.91,209.6,330.81z M112.05,196.6c19.75-4.38,36.97,12.83,32.59,32.59
	c-2.21,9.95-10.24,17.99-20.19,20.2c-19.76,4.38-36.97-12.83-32.59-32.59C94.07,206.84,102.1,198.81,112.05,196.6z"/>
<path class="st1" d="M235.23,366.07c0.8-2.54,1.25-5.23,1.26-8.03c0.08-14.66-12.25-27.14-26.91-27.23
	c-15.03-0.09-27.25,12.07-27.25,27.08c-4.74,33.85-32.73,58.71-64.09,59.17c-35.88,0.53-66.97-31.02-65.1-59.17
	c0.06-0.91,0.16-1.82,0.28-2.73c-0.57,0.89-1.13,1.8-1.68,2.73c-13.1,22.27-18.83,50.47-17.02,73.55
	c20.5,21.96,49.19,38.82,83.53,38.76C173.18,470.1,224.18,426.68,235.23,366.07z"/>
<path class="st0" d="M1326.12,331.03c-15.05-0.1-27.29,12.07-27.29,27.1c-4.74,33.89-32.76,58.77-64.15,59.23
	c-35.91,0.53-67.03-31.05-65.17-59.23c1.92-28.98,38.18-53.19,65.17-53.19c64.15,0,0,0,64.15,0c18.17,0,54.21,0,54.21-81.84H1353
	c-0.88-64.61-53.5-116.73-118.32-116.73s-117.44,52.11-118.32,116.73h-0.03c0,3.79-0.01,35.35-0.02,39.1
	c-0.01,31.11-0.01,38.54,0,42.74c0.15,53.19,0,0,0.15,53.19c0.11,40.07,47.05,112.56,118.21,112.42
	c54.98-0.1,106.04-43.57,117.09-104.24c0.8-2.54,1.25-5.23,1.26-8.03C1353.12,343.62,1340.79,331.13,1326.12,331.03z
	 M1228.48,196.69c19.77-4.38,37,12.84,32.62,32.62c-2.21,9.96-10.25,18.01-20.21,20.22c-19.77,4.38-37-12.84-32.62-32.62
	C1210.47,206.94,1218.51,198.9,1228.48,196.69z"/>
<path class="st1" d="M1351.77,366.33c0.8-2.54,1.25-5.24,1.26-8.04c0.08-14.68-12.26-27.16-26.94-27.25
	c-15.05-0.09-27.27,12.08-27.27,27.1c-4.74,33.89-32.76,58.77-64.15,59.23c-35.91,0.53-67.03-31.05-65.17-59.23
	c0.06-0.92,0.16-1.83,0.28-2.73c-0.57,0.9-1.14,1.8-1.68,2.73c-13.12,22.29-18.84,50.52-17.04,73.63
	c20.52,21.98,49.24,38.86,83.61,38.8C1289.66,470.46,1340.72,426.99,1351.77,366.33z"/>
<path class="st2" d="M1610.01,304.95h-65.17c-14.69,0-26.6,11.91-26.6,26.6l0,0c0,14.69,11.91,26.6,26.6,26.6h38.29
	c-3.15,34.88-33.77,61.84-70.07,59.03c-34.2-2.64-59.98-32.42-59.98-66.73V226.4c0-33.24,24.22-62.46,57.23-66.36
	c38.98-4.6,72.13,25.24,73.06,63.07l0,0c0,15.77,13.71,28.33,29.86,26.42c6.64-0.79,12.52-4.6,16.79-9.75
	c5.92-7.13,7.05-13.57,6.43-19.49c-2.57-68.44-63.9-122.52-134.74-112.77c-58.88,8.1-101.82,60.07-101.82,119.5v122.93
	c0,59.22,42.65,111.06,101.28,119.39c70.55,10.02,131.89-43.29,135.29-111.21h0.15v-5.93v0v-20.66
	C1636.61,316.86,1624.7,304.95,1610.01,304.95z"/>
<path class="st2" d="M1892.82,106.38h1.17c14.37,0,26.01-11.65,26.01-26.01V26.01C1920,11.65,1908.35,0,1893.99,0l-1.17,0
	c-14.37,0-26.01,11.65-26.01,26.01l0,54.36C1866.81,94.74,1878.45,106.38,1892.82,106.38z"/>
<path class="st2" d="M1823.8,66.2l0.58,1.01c7.18,12.44,23.09,16.7,35.53,9.52l47.07-27.18c12.44-7.18,16.7-23.09,9.52-35.53
	l-0.58-1.01c-7.18-12.44-23.09-16.7-35.53-9.52l-47.07,27.18C1820.88,37.85,1816.61,53.76,1823.8,66.2z"/>
</svg>
