<?xml version="1.0" encoding="utf-8"?>
<!-- Generator: Adobe Illustrator 23.0.5, SVG Export Plug-In . SVG Version: 6.00 Build 0)  -->
<svg version="1.1" id="Camada_1" xmlns="http://www.w3.org/2000/svg" xmlns:xlink="http://www.w3.org/1999/xlink" x="0px" y="0px"
	 viewBox="0 0 1920 470.56" style="enable-background:new 0 0 1920 470.56;" xml:space="preserve">
<path d="M1069.48,224.74c0-65.37-52.99-118.36-118.36-118.36c-24.44,0-47.14,7.41-66,20.1c-2.9-11.54-13.32-20.1-25.76-20.1
	c-14.69,0-26.6,11.91-26.6,26.6v91.76c0,0,0,0,0,0s0,0,0,0v219.22c0,14.69,11.91,26.6,26.6,26.6c14.69,0,26.6-11.91,26.6-26.6
	V327.34l74.91,129.74c7.34,12.72,23.61,17.08,36.33,9.73c12.72-7.34,17.08-23.61,9.73-36.33l-50.53-87.52
	C1019.31,340.2,1069.48,288.34,1069.48,224.74z M951.12,250.21c-14.97,0-27.1-12.14-27.1-27.1c0-14.97,12.14-27.11,27.1-27.11
	s27.1,12.14,27.1,27.11C978.22,238.08,966.09,250.21,951.12,250.21z"/>
<path d="M677.21,106.39c-21.63-0.16-41.79,5.98-58.82,16.67c-4.34-10.78-15.53-18.08-28.19-16.45
	c-13.41,1.72-23.07,13.84-23.07,27.36v81.67c0,0,0,0,0,0c0,0,0,0,0,0v227.32c0,13.6,9.77,25.76,23.26,27.4
	c16.18,1.96,29.93-10.61,29.93-26.39V309.41c16.39,9.82,35.56,15.48,56.06,15.48c60.82,0,110.02-49.69,109.24-110.68
	C784.88,155.32,736.11,106.82,677.21,106.39z M682.59,249.53c-19.77,4.38-37-12.84-32.62-32.62c2.21-9.96,10.25-18,20.21-20.21
	c19.77-4.38,37,12.84,32.62,32.62C700.6,239.28,692.56,247.32,682.59,249.53z"/>
<path d="M520.27,132.7c0-0.21-0.01-0.43-0.02-0.64c-0.01-0.25-0.02-0.51-0.04-0.76c-0.01-0.14-0.02-0.27-0.03-0.41
	c-0.03-0.33-0.06-0.66-0.09-0.98c0-0.04-0.01-0.08-0.01-0.12c-0.52-4.33-2.08-8.35-4.42-11.78c-0.02-0.04-0.05-0.07-0.08-0.11
	c-0.21-0.31-0.43-0.61-0.65-0.91c-0.1-0.14-0.21-0.27-0.32-0.4c-0.15-0.2-0.31-0.4-0.47-0.59c-0.14-0.17-0.29-0.34-0.44-0.51
	c-0.13-0.15-0.27-0.31-0.4-0.46c-0.15-0.16-0.31-0.32-0.46-0.48c-0.15-0.15-0.29-0.31-0.45-0.46c-0.13-0.13-0.27-0.26-0.41-0.39
	c-0.19-0.18-0.37-0.35-0.56-0.53c-0.1-0.09-0.21-0.18-0.31-0.27c-0.24-0.21-0.48-0.42-0.73-0.62c-0.06-0.05-0.12-0.09-0.18-0.14
	c-0.3-0.24-0.61-0.48-0.93-0.71c-0.01-0.01-0.03-0.02-0.04-0.03c-2.17-1.57-4.58-2.81-7.17-3.67c0,0,0,0,0,0
	c-0.39-0.13-0.78-0.25-1.17-0.36c-0.05-0.01-0.1-0.03-0.15-0.04c-0.34-0.09-0.68-0.18-1.03-0.26c-0.1-0.02-0.21-0.05-0.31-0.07
	c-0.29-0.06-0.59-0.12-0.88-0.18c-0.16-0.03-0.31-0.06-0.47-0.08c-0.25-0.04-0.5-0.08-0.75-0.11c-0.2-0.03-0.41-0.05-0.61-0.08
	c-0.21-0.02-0.43-0.04-0.64-0.06c-0.24-0.02-0.47-0.04-0.71-0.05c-0.2-0.01-0.39-0.02-0.59-0.03c-0.25-0.01-0.5-0.02-0.74-0.02
	c-0.11,0-0.22-0.01-0.33-0.01h0c-0.1,0-0.19,0.01-0.28,0.01c-0.22,0-0.44,0.01-0.66,0.02c-0.24,0.01-0.49,0.02-0.73,0.03
	c-0.16,0.01-0.31,0.02-0.47,0.04c-0.31,0.02-0.61,0.05-0.91,0.09c-0.07,0.01-0.15,0.02-0.22,0.03c-3.42,0.42-6.63,1.48-9.52,3.07
	c-0.04,0.02-0.07,0.04-0.11,0.06c-0.32,0.18-0.64,0.36-0.95,0.55c-0.25,0.15-0.5,0.32-0.75,0.48c-0.09,0.06-0.19,0.12-0.28,0.18
	c-1.74,1.17-3.35,2.56-4.79,4.15c0,0,0,0-0.01,0.01c-0.24,0.27-0.48,0.55-0.72,0.83c-0.05,0.07-0.11,0.13-0.16,0.19
	c-0.18,0.22-0.36,0.45-0.54,0.69c-0.1,0.13-0.2,0.26-0.3,0.4c-0.13,0.18-0.26,0.36-0.39,0.54c-0.14,0.2-0.28,0.4-0.41,0.6
	c-0.09,0.14-0.18,0.27-0.27,0.41c-0.16,0.25-0.32,0.51-0.47,0.77c-0.03,0.05-0.06,0.1-0.09,0.15l-68.73,119.04L333.2,119.68
	c-0.03-0.05-0.06-0.1-0.09-0.15c-0.15-0.26-0.31-0.51-0.47-0.77c-0.09-0.14-0.18-0.28-0.27-0.42c-0.13-0.2-0.27-0.4-0.41-0.6
	c-0.13-0.18-0.26-0.37-0.39-0.54c-0.1-0.13-0.2-0.27-0.3-0.4c-0.18-0.23-0.36-0.46-0.54-0.69c-0.05-0.07-0.11-0.13-0.16-0.19
	c-0.23-0.28-0.47-0.56-0.72-0.83c0,0,0,0,0,0c-1.44-1.59-3.06-2.98-4.79-4.15c-0.09-0.06-0.19-0.12-0.28-0.18
	c-0.25-0.16-0.5-0.33-0.75-0.48c-0.31-0.19-0.63-0.37-0.95-0.55c-0.04-0.02-0.07-0.04-0.11-0.06c-2.89-1.59-6.11-2.65-9.52-3.07
	c-0.07-0.01-0.15-0.02-0.22-0.03c-0.3-0.03-0.61-0.06-0.91-0.09c-0.16-0.01-0.31-0.03-0.47-0.04c-0.24-0.01-0.48-0.03-0.73-0.03
	c-0.22-0.01-0.44-0.01-0.66-0.02c-0.09,0-0.19-0.01-0.28-0.01c-0.11,0-0.22,0.01-0.33,0.01c-0.25,0-0.5,0.01-0.74,0.02
	c-0.2,0.01-0.39,0.02-0.59,0.03c-0.24,0.01-0.47,0.03-0.71,0.05c-0.21,0.02-0.43,0.04-0.64,0.06c-0.2,0.02-0.41,0.05-0.61,0.08
	c-0.25,0.03-0.5,0.07-0.75,0.11c-0.16,0.03-0.31,0.05-0.47,0.08c-0.29,0.05-0.59,0.11-0.88,0.18c-0.1,0.02-0.21,0.05-0.31,0.07
	c-0.35,0.08-0.69,0.17-1.03,0.26c-0.05,0.01-0.1,0.03-0.15,0.04c-0.39,0.11-0.79,0.23-1.17,0.36c0,0,0,0-0.01,0
	c-2.59,0.86-5,2.11-7.17,3.67c-0.01,0.01-0.03,0.02-0.04,0.03c-0.31,0.23-0.62,0.46-0.93,0.71c-0.06,0.05-0.12,0.09-0.18,0.14
	c-0.25,0.2-0.49,0.41-0.73,0.62c-0.1,0.09-0.21,0.18-0.31,0.27c-0.19,0.17-0.37,0.35-0.56,0.52c-0.14,0.13-0.28,0.26-0.41,0.39
	c-0.15,0.15-0.3,0.3-0.44,0.46c-0.15,0.16-0.31,0.32-0.46,0.48c-0.14,0.15-0.27,0.3-0.4,0.46c-0.15,0.17-0.3,0.34-0.44,0.51
	c-0.16,0.19-0.31,0.39-0.46,0.58c-0.11,0.14-0.22,0.27-0.32,0.41c-0.22,0.29-0.44,0.59-0.64,0.9c-0.03,0.04-0.06,0.08-0.08,0.12
	c-2.35,3.43-3.9,7.45-4.42,11.78c0,0.04-0.01,0.08-0.01,0.12c-0.04,0.33-0.07,0.65-0.09,0.98c-0.01,0.14-0.02,0.27-0.03,0.41
	c-0.02,0.25-0.03,0.51-0.04,0.76c-0.01,0.21-0.01,0.43-0.02,0.64c0,0.09-0.01,0.19-0.01,0.28v310.99c0,14.69,11.91,26.6,26.6,26.6
	s26.6-11.91,26.6-26.6V232.23l41.98,72.71c2.46,4.25,5.91,7.57,9.9,9.83c0.02,0.01,0.05,0.03,0.07,0.04h0
	c0.02,0.01,0.04,0.02,0.06,0.03c0.15,0.08,0.3,0.17,0.45,0.25c12.64,6.94,28.57,2.53,35.81-10.02l42.06-72.84v211.74
	c0,14.69,11.91,26.6,26.6,26.6h0c14.69,0,26.6-11.91,26.6-26.6V132.98C520.28,132.88,520.27,132.79,520.27,132.7z"/>
<path d="M1801.64,106.38L1801.64,106.38c-65.1,0-118.36,53.26-118.36,118.36V352.2c0,65.1,53.26,118.36,118.36,118.36h0
	c65.1,0,118.36-53.26,118.36-118.36V224.74C1920,159.64,1866.74,106.38,1801.64,106.38z M1866.81,352.2
	c0,35.99-29.18,65.17-65.17,65.17l0,0c-35.99,0-65.17-29.18-65.17-65.17V224.74c0-35.99,29.18-65.17,65.17-65.17l0,0
	c35.99,0,65.17,29.18,65.17,65.17V352.2z"/>
<path d="M209.6,330.81c-15.04-0.1-27.26,12.06-27.26,27.08c-4.74,33.85-32.73,58.71-64.09,59.17c-35.88,0.53-66.97-31.02-65.1-59.17
	c1.92-28.95,38.15-53.14,65.1-53.14c64.09,0,0,0,64.09,0c18.15,0,54.16,0,54.16-81.76h-0.04c-0.88-64.55-53.44-116.61-118.2-116.61
	S0.93,158.45,0.05,222.99H0.02c0,3.79-0.01,35.32-0.02,39.06c-0.01,31.08-0.01,38.5,0,42.7c0.15,53.14,0,0,0.15,53.14
	c0.11,40.03,47.01,112.45,118.09,112.31c54.93-0.1,105.93-43.53,116.98-104.13c0.8-2.53,1.25-5.23,1.26-8.02
	C236.58,343.39,224.26,330.91,209.6,330.81z M112.05,196.6c19.75-4.38,36.97,12.83,32.59,32.59c-2.21,9.95-10.24,17.99-20.19,20.2
	c-19.76,4.38-36.97-12.83-32.59-32.59C94.07,206.84,102.1,198.81,112.05,196.6z"/>
<path d="M1326.12,331.03c-15.05-0.1-27.29,12.07-27.29,27.1c-4.74,33.89-32.76,58.77-64.15,59.23
	c-35.91,0.53-67.03-31.05-65.17-59.23c1.92-28.98,38.18-53.19,65.17-53.19c64.15,0,0,0,64.15,0c18.17,0,54.21,0,54.21-81.84H1353
	c-0.88-64.61-53.5-116.73-118.32-116.73s-117.44,52.11-118.32,116.73h-0.03c0,3.79-0.01,35.35-0.02,39.1
	c-0.01,31.11-0.01,38.54,0,42.74c0.15,53.19,0,0,0.15,53.19c0.11,40.07,47.05,112.56,118.21,112.42
	c54.98-0.1,106.04-43.57,117.09-104.24c0.8-2.54,1.25-5.23,1.26-8.03C1353.12,343.62,1340.79,331.13,1326.12,331.03z
	 M1228.48,196.69c19.77-4.38,37,12.84,32.62,32.62c-2.21,9.96-10.25,18.01-20.21,20.22c-19.77,4.38-37-12.84-32.62-32.62
	C1210.47,206.94,1218.51,198.9,1228.48,196.69z"/>
<path d="M1610.01,304.95h-65.17c-14.69,0-26.6,11.91-26.6,26.6l0,0c0,14.69,11.91,26.6,26.6,26.6h38.29
	c-3.15,34.88-33.77,61.84-70.07,59.03c-34.2-2.64-59.98-32.42-59.98-66.73V226.4c0-33.24,24.22-62.46,57.23-66.36
	c38.98-4.6,72.13,25.24,73.06,63.07l0,0c0,15.77,13.71,28.33,29.86,26.42c6.64-0.79,12.52-4.6,16.79-9.75
	c5.92-7.13,7.05-13.57,6.43-19.49c-2.57-68.44-63.9-122.52-134.74-112.77c-58.88,8.1-101.82,60.07-101.82,119.5v122.93
	c0,59.22,42.65,111.06,101.28,119.39c70.55,10.02,131.89-43.29,135.29-111.21h0.15v-5.93v0v-20.66
	C1636.61,316.86,1624.7,304.95,1610.01,304.95z"/>
<path d="M1892.82,106.38h1.17c14.37,0,26.01-11.65,26.01-26.01V26.01C1920,11.65,1908.35,0,1893.99,0l-1.17,0
	c-14.37,0-26.01,11.65-26.01,26.01l0,54.36C1866.81,94.74,1878.45,106.38,1892.82,106.38z"/>
<path d="M1823.8,66.2l0.58,1.01c7.18,12.44,23.09,16.7,35.53,9.52l47.07-27.18c12.44-7.18,16.7-23.09,9.52-35.53l-0.58-1.01
	c-7.18-12.44-23.09-16.7-35.53-9.52l-47.07,27.18C1820.88,37.85,1816.61,53.76,1823.8,66.2z"/>
</svg>
