<?xml version="1.0" encoding="UTF-8" standalone="no"?>
<svg
   xmlns:dc="http://purl.org/dc/elements/1.1/"
   xmlns:cc="http://creativecommons.org/ns#"
   xmlns:rdf="http://www.w3.org/1999/02/22-rdf-syntax-ns#"
   xmlns:svg="http://www.w3.org/2000/svg"
   xmlns="http://www.w3.org/2000/svg"
   id="svg8"
   version="1.1"
   viewBox="0 0 285.75001 285.75001"
   height="1080"
   width="1080">
  <defs
     id="defs2">
    <clipPath
       clipPathUnits="userSpaceOnUse"
       id="clipPath831">
      <path
         d="M 0,1080 H 1080 V 0 H 0 Z"
         id="path829" />
    </clipPath>
  </defs>
  <metadata
     id="metadata5">
    <rdf:RDF>
      <cc:Work
         rdf:about="">
        <dc:format>image/svg+xml</dc:format>
        <dc:type
           rdf:resource="http://purl.org/dc/dcmitype/StillImage" />
        <dc:title></dc:title>
      </cc:Work>
    </rdf:RDF>
  </metadata>
  <g
     transform="translate(0,-11.249939)"
     id="layer1">
    <g
       style="fill:#2793ff;fill-opacity:1"
       transform="matrix(0.26458342,0,0,-0.26458342,4.5020985e-6,297)"
       id="g827"
       clip-path="url(#clipPath831)">
      <g
         style="fill:#2793ff;fill-opacity:1"
         id="g833"
         transform="translate(1014.0194,65.9804)">
        <path
           d="m 0,0 c -17.841,-17.841 -46.767,-17.841 -64.607,0 l -312.467,312.467 c 11.826,9.373 23.254,19.496 34.182,30.425 10.929,10.928 21.052,22.356 30.425,34.182 L 0,64.607 C 17.841,46.767 17.841,17.841 0,0 m -620.882,279.98 c -188.073,0 -340.538,152.464 -340.538,340.538 0,188.074 152.465,340.538 340.538,340.538 188.073,0 340.538,-152.464 340.538,-340.538 0,-188.074 -152.465,-340.538 -340.538,-340.538 M 37.193,101.802 -282.152,421.147 c 89.039,150.759 68.793,348.193 -60.74,477.725 -153.53,153.53 -402.45,153.53 -555.98,0 -153.53,-153.53 -153.53,-402.451 0,-555.98 129.532,-129.533 326.966,-149.779 477.725,-60.74 l 319.346,-319.345 c 38.382,-38.383 100.613,-38.383 138.994,0 38.383,38.381 38.383,100.612 0,138.995"
           style="fill:#2793ff;fill-opacity:1;fill-rule:nonzero;stroke:none"
           id="path835" />
      </g>
      <g
         style="fill:#2793ff;fill-opacity:1"
         id="g837"
         transform="translate(492.1005,685.5053)">
        <path
           d="m 0,0 c -54.655,0 -98.963,44.307 -98.963,98.963 0,40.122 23.877,74.667 58.196,90.202 -18.39,5.692 -37.935,8.761 -58.196,8.761 -108.561,0 -196.569,-88.007 -196.569,-196.569 0,-108.562 88.008,-196.568 196.569,-196.568 108.562,0 196.569,88.006 196.569,196.568 0,19.309 -2.797,37.962 -7.986,55.592 C 73.818,23.301 39.633,0 0,0"
           style="fill:#2793ff;fill-opacity:1;fill-rule:nonzero;stroke:none"
           id="path839" />
      </g>
    </g>
  </g>
</svg>
