<svg xmlns="http://www.w3.org/2000/svg" xmlns:xlink="http://www.w3.org/1999/xlink" viewBox="0 0 1321.9 1083.7"><defs><style>.cls-1{fill:none;}.cls-2{fill:#001432;}.cls-3{fill:#001d49;}.cls-4{fill:#0a1343;}.cls-5{fill:#2992fe;}.cls-6{fill:#0a131c;}.cls-7{fill:#f5f8f8;}.cls-8{fill:#c0c5c5;}.cls-9{clip-path:url(#clip-path);}</style><clipPath id="clip-path"><rect class="cls-1" x="546.7" y="785.3" width="232.1" height="101.5"/></clipPath></defs><title>empresa_1</title><g id="Camada_2" data-name="Camada 2"><g id="svg6122"><path id="rect5543-3-3" class="cls-2" d="M482.6,0a17.46,17.46,0,0,0-17.5,17.5V221.6a17.46,17.46,0,0,0,17.5,17.5h39.2a14.41,14.41,0,0,1-5-10.9V58.7a14.51,14.51,0,0,1,14.5-14.5H789.2a14.51,14.51,0,0,1,14.5,14.5V228.2a14.1,14.1,0,0,1-5,10.9h39.2a17.46,17.46,0,0,0,17.5-17.5V17.5A17.46,17.46,0,0,0,837.9,0Z"/><path id="rect5543-3" class="cls-2" d="M68.5,146.2H1253.3a68.54,68.54,0,0,1,68.5,68.5v800.5a68.54,68.54,0,0,1-68.5,68.5H68.5A68.54,68.54,0,0,1,0,1015.2V214.7A68.48,68.48,0,0,1,68.5,146.2Z"/><path id="rect5543-3-4" class="cls-3" d="M61.7,239H378.4a61.67,61.67,0,0,1,61.7,61.7v721.2a61.67,61.67,0,0,1-61.7,61.7H61.7A61.67,61.67,0,0,1,0,1021.9V300.7A61.73,61.73,0,0,1,61.7,239Z"/><path id="rect5543-3-4-3" class="cls-3" d="M943.4,239h316.7a61.67,61.67,0,0,1,61.7,61.7v721.2a61.67,61.67,0,0,1-61.7,61.7H943.4a61.67,61.67,0,0,1-61.7-61.7V300.7A61.67,61.67,0,0,1,943.4,239Z"/><rect id="rect5543-3-4-3-8" class="cls-4" x="440.2" y="147.9" width="440.2" height="935.8"/><rect id="rect5543-3-4-3-8-0" class="cls-5" x="441.4" y="239" width="440.2" height="844.7"/><g id="g5762"><path id="rect5543-3-4-1" class="cls-6" d="M143.36,239h338.7c79.2,0,143.3,49.24,143.3,109.9v428c0,60.74-64.2,109.9-143.3,109.9H143.36C64.16,886.76.05,837.52.05,776.86V348.91C0,288.25,64.15,239,143.36,239Z"/><path id="rect5543-3-4-3-1" class="cls-6" d="M782.26,239h382.59c86.7,0,157,53.91,157,120.41V766.5c0,66.49-70.3,120.41-157,120.41H782.26c-86.71,0-157-53.92-157-120.41V359.42C625.35,292.92,695.55,239,782.26,239Z"/><rect id="rect5543-3-4-3-8-0-1" class="cls-6" x="441.46" y="239.01" width="440.2" height="647.82"/></g><path id="rect5543-3-4-1-3" class="cls-3" d="M100,239H509a98.76,98.76,0,0,1,98.8,98.8V722.4A98.76,98.76,0,0,1,509,821.2H100A98.76,98.76,0,0,1,1.2,722.4V337.8A98.88,98.88,0,0,1,100,239Z"/><path id="rect5543-3-4-3-1-7" class="cls-3" d="M848.1,239h365.6a108.21,108.21,0,0,1,108.2,108.2V713a108.21,108.21,0,0,1-108.2,108.2H848.1A108.21,108.21,0,0,1,739.9,713V347.2A108.27,108.27,0,0,1,848.1,239Z"/><rect id="rect5543-3-4-3-8-0-1-5" class="cls-5" x="442.7" y="239" width="440.2" height="582.2"/><path id="rect5796" class="cls-7" d="M617.2,792.2h88.7a50.45,50.45,0,0,1,50.4,50.4v78.6a50.45,50.45,0,0,1-50.4,50.4H617.2a50.45,50.45,0,0,1-50.4-50.4V842.6A50.51,50.51,0,0,1,617.2,792.2Z"/><circle id="path5798" class="cls-8" cx="661.6" cy="881.9" r="49.4"/><g class="cls-9"><path id="rect5788" class="cls-7" d="M607.8,788H715.3c33.7,0,61.1,24.2,61.1,54v43.2c0,29.8-27.3,54-61.1,54H607.8c-33.7,0-61.1-24.2-61.1-54V842C546.7,812.2,574.1,788,607.8,788Z"/></g></g></g></svg>