<svg xmlns="http://www.w3.org/2000/svg" viewBox="0 0 915.15 1083.6"><defs><style>.cls-1{fill:#e6e6e6;}.cls-2{fill:#fff;}</style></defs><title>Ativo 4</title><g id="Camada_2" data-name="Camada 2"><g id="svg6122"><path id="path5828" class="cls-1" d="M0,1083.6H0C0,925.46,113.69,790.27,269.46,763l10.83-1.88c33.93-21.62,12.72-80.62,1-98.38-20.1-42-43.39-97.41-50.3-157-31.36-26-46.35-76.48-20.45-125.67C190.06,184.27,200.15-1.58,457.58,0V1083.26Z"/><path id="path5828-9" class="cls-2" d="M915.15,1083.6h0c0-158.14-113.69-293.33-269.46-320.63l-10.83-1.88c-33.92-21.62-12.71-80.62-1-98.38,20.1-42,43.39-97.41,50.3-157,31.36-26,46.36-76.48,20.45-125.67C725.09,184.27,715-1.58,457.58,0V1083.26Z"/></g></g></svg>